{
	"asset":{
		"generator":"Khronos glTF Blender I/O v4.0.44",
		"version":"2.0"
	},
	"scene":0,
	"scenes":[
		{
			"name":"Scene",
			"nodes":[
				0,
				1,
				2,
				3
			]
		}
	],
	"nodes":[
		{
			"mesh":0,
			"name":"Sign2"
		},
		{
			"mesh":1,
			"name":"Sign"
		},
		{
			"mesh":2,
			"name":"vid1",
			"rotation":[
				-0.10512732714414597,
				-0.6992484331130981,
				-0.6992483139038086,
				0.10512727499008179
			],
			"scale":[
				1.3095239400863647,
				0.9977397918701172,
				1.71583890914917
			],
			"translation":[
				-2.5352399349212646,
				5.115672588348389,
				-0.0928264856338501
			]
		},
		{
			"mesh":3,
			"name":"vid2",
			"rotation":[
				-0.1051272600889206,
				0.6992484331130981,
				0.6992483139038086,
				0.10512732714414597
			],
			"scale":[
				1.3095239400863647,
				0.9977397918701172,
				1.71583890914917
			],
			"translation":[
				2.53524112701416,
				5.115672588348389,
				-0.0928264856338501
			]
		}
	],
	"materials":[
		{
			"name":"Niraj_Hair_Gray.001",
			"pbrMetallicRoughness":{
				"baseColorFactor":[
					0.5468856692314148,
					0.5468856692314148,
					0.5468856692314148,
					1
				],
				"metallicFactor":0.7648955583572388,
				"roughnessFactor":0.19259338080883026
			}
		},
		{
			"name":"Niraj_Hair_Gray",
			"pbrMetallicRoughness":{
				"baseColorFactor":[
					0.5468856692314148,
					0.5468856692314148,
					0.5468856692314148,
					1
				],
				"metallicFactor":0.7648955583572388,
				"roughnessFactor":0.19259338080883026
			}
		}
	],
	"meshes":[
		{
			"name":"Material2.002",
			"primitives":[
				{
					"attributes":{
						"POSITION":0,
						"NORMAL":1
					},
					"indices":2,
					"material":0
				}
			]
		},
		{
			"name":"Material2",
			"primitives":[
				{
					"attributes":{
						"POSITION":3,
						"NORMAL":4
					},
					"indices":2,
					"material":1
				}
			]
		},
		{
			"name":"Plane.002",
			"primitives":[
				{
					"attributes":{
						"POSITION":5,
						"NORMAL":6,
						"TEXCOORD_0":7
					},
					"indices":8
				}
			]
		},
		{
			"name":"Plane.003",
			"primitives":[
				{
					"attributes":{
						"POSITION":9,
						"NORMAL":10,
						"TEXCOORD_0":11
					},
					"indices":8
				}
			]
		}
	],
	"accessors":[
		{
			"bufferView":0,
			"componentType":5126,
			"count":269,
			"max":[
				3.8519628047943115,
				6.892913818359375,
				1.0846635103225708
			],
			"min":[
				1.1826905012130737,
				0.003149454714730382,
				-1.2728502750396729
			],
			"type":"VEC3"
		},
		{
			"bufferView":1,
			"componentType":5126,
			"count":269,
			"type":"VEC3"
		},
		{
			"bufferView":2,
			"componentType":5123,
			"count":606,
			"type":"SCALAR"
		},
		{
			"bufferView":3,
			"componentType":5126,
			"count":269,
			"max":[
				-1.1826905012130737,
				6.892913818359375,
				1.077526330947876
			],
			"min":[
				-3.8519628047943115,
				0.003149454714730382,
				-1.2657135725021362
			],
			"type":"VEC3"
		},
		{
			"bufferView":4,
			"componentType":5126,
			"count":269,
			"type":"VEC3"
		},
		{
			"bufferView":5,
			"componentType":5126,
			"count":4,
			"max":[
				1,
				0,
				1
			],
			"min":[
				-1,
				0,
				-1
			],
			"type":"VEC3"
		},
		{
			"bufferView":6,
			"componentType":5126,
			"count":4,
			"type":"VEC3"
		},
		{
			"bufferView":7,
			"componentType":5126,
			"count":4,
			"type":"VEC2"
		},
		{
			"bufferView":8,
			"componentType":5123,
			"count":6,
			"type":"SCALAR"
		},
		{
			"bufferView":9,
			"componentType":5126,
			"count":4,
			"max":[
				1,
				0,
				1
			],
			"min":[
				-1,
				0,
				-1
			],
			"type":"VEC3"
		},
		{
			"bufferView":10,
			"componentType":5126,
			"count":4,
			"type":"VEC3"
		},
		{
			"bufferView":11,
			"componentType":5126,
			"count":4,
			"type":"VEC2"
		}
	],
	"bufferViews":[
		{
			"buffer":0,
			"byteLength":3228,
			"byteOffset":0,
			"target":34962
		},
		{
			"buffer":0,
			"byteLength":3228,
			"byteOffset":3228,
			"target":34962
		},
		{
			"buffer":0,
			"byteLength":1212,
			"byteOffset":6456,
			"target":34963
		},
		{
			"buffer":0,
			"byteLength":3228,
			"byteOffset":7668,
			"target":34962
		},
		{
			"buffer":0,
			"byteLength":3228,
			"byteOffset":10896,
			"target":34962
		},
		{
			"buffer":0,
			"byteLength":48,
			"byteOffset":14124,
			"target":34962
		},
		{
			"buffer":0,
			"byteLength":48,
			"byteOffset":14172,
			"target":34962
		},
		{
			"buffer":0,
			"byteLength":32,
			"byteOffset":14220,
			"target":34962
		},
		{
			"buffer":0,
			"byteLength":12,
			"byteOffset":14252,
			"target":34963
		},
		{
			"buffer":0,
			"byteLength":48,
			"byteOffset":14264,
			"target":34962
		},
		{
			"buffer":0,
			"byteLength":48,
			"byteOffset":14312,
			"target":34962
		},
		{
			"buffer":0,
			"byteLength":32,
			"byteOffset":14360,
			"target":34962
		}
	],
	"buffers":[
		{
			"byteLength":14392,
			"uri":"MignSigns.bin"
		}
	]
}
