{
	"asset":{
		"generator":"Khronos glTF Blender I/O v4.0.44",
		"version":"2.0"
	},
	"scene":0,
	"scenes":[
		{
			"name":"Scene",
			"nodes":[
				0,
				1,
				2,
				3,
				4,
				5,
				6,
				7
			]
		}
	],
	"nodes":[
		{
			"mesh":0,
			"name":"post1",
			"rotation":[
				0,
				0.059137068688869476,
				0,
				0.998249888420105
			],
			"translation":[
				0.24298438429832458,
				0.4452647566795349,
				0.1345899999141693
			]
		},
		{
			"mesh":1,
			"name":"sign1",
			"rotation":[
				0.05989009141921997,
				0.20940141379833221,
				-0.015557537786662579,
				0.9758699536323547
			],
			"translation":[
				0.3296695053577423,
				0.9014267921447754,
				0.17467886209487915
			]
		},
		{
			"mesh":2,
			"name":"sign4",
			"rotation":[
				-0.05294603854417801,
				-0.040699440985918045,
				-0.002159700496122241,
				0.9977653622627258
			],
			"translation":[
				0.09608760476112366,
				0.7699999809265137,
				-0.8803907036781311
			]
		},
		{
			"mesh":3,
			"name":"sign2",
			"rotation":[
				0.7184540033340454,
				0.024058891460299492,
				-0.02488107793033123,
				0.6947129964828491
			],
			"translation":[
				0.04998268187046051,
				1.678444743156433,
				-0.8480563163757324
			]
		},
		{
			"mesh":4,
			"name":"post2",
			"rotation":[
				0,
				-0.09694379568099976,
				0,
				0.9952898621559143
			],
			"translation":[
				0.003321383148431778,
				0.5868237018585205,
				-0.8852208256721497
			]
		},
		{
			"mesh":5,
			"name":"sign3",
			"rotation":[
				0.9961844682693481,
				-0.0003055949346162379,
				-2.6815978344529867e-05,
				0.08727224171161652
			],
			"translation":[
				0.092714324593544,
				1.167606234550476,
				-0.8391107320785522
			]
		},
		{
			"mesh":6,
			"name":"post3",
			"rotation":[
				-0.059137068688869476,
				0,
				-0.998249888420105,
				0
			],
			"scale":[
				-1,
				-1,
				-1
			],
			"translation":[
				0.277951717376709,
				0.4452647566795349,
				-1.868481159210205
			]
		},
		{
			"mesh":7,
			"name":"sign5",
			"rotation":[
				-0.21760809421539307,
				0.238740935921669,
				0.9454881548881531,
				0.041250910609960556
			],
			"scale":[
				-1,
				-1,
				-1
			],
			"translation":[
				0.33281996846199036,
				0.9547169208526611,
				-1.8777786493301392
			]
		}
	],
	"materials":[
		{
			"doubleSided":true,
			"name":"Holz4",
			"pbrMetallicRoughness":{
				"baseColorFactor":[
					0.3050609230995178,
					0.04780338332056999,
					0.008720122277736664,
					1
				],
				"metallicFactor":0,
				"roughnessFactor":0.7727272510528564
			}
		},
		{
			"doubleSided":true,
			"name":"Wegweiser2",
			"pbrMetallicRoughness":{
				"baseColorFactor":[
					0.3439275324344635,
					0.14571040868759155,
					0.032664429396390915,
					1
				],
				"metallicFactor":0,
				"roughnessFactor":0.5
			}
		},
		{
			"doubleSided":true,
			"name":"Wegweiser1",
			"pbrMetallicRoughness":{
				"baseColorFactor":[
					0.4532180726528168,
					0.18743914365768433,
					0.07442531734704971,
					1
				],
				"metallicFactor":0,
				"roughnessFactor":0.8545454740524292
			}
		},
		{
			"doubleSided":true,
			"name":"Wegweiser3",
			"pbrMetallicRoughness":{
				"baseColorFactor":[
					0.3439275324344635,
					0.16760830581188202,
					0.061806321144104004,
					1
				],
				"metallicFactor":0,
				"roughnessFactor":0.5
			}
		}
	],
	"meshes":[
		{
			"name":"Cylinder.001",
			"primitives":[
				{
					"attributes":{
						"POSITION":0,
						"NORMAL":1,
						"TEXCOORD_0":2
					},
					"indices":3,
					"material":0
				}
			]
		},
		{
			"name":"Cube.004",
			"primitives":[
				{
					"attributes":{
						"POSITION":4,
						"NORMAL":5,
						"TEXCOORD_0":6
					},
					"indices":7,
					"material":1
				}
			]
		},
		{
			"name":"Cube.001",
			"primitives":[
				{
					"attributes":{
						"POSITION":8,
						"NORMAL":9,
						"TEXCOORD_0":10
					},
					"indices":11,
					"material":2
				}
			]
		},
		{
			"name":"Cube.003",
			"primitives":[
				{
					"attributes":{
						"POSITION":12,
						"NORMAL":13,
						"TEXCOORD_0":14
					},
					"indices":15,
					"material":3
				}
			]
		},
		{
			"name":"Cylinder",
			"primitives":[
				{
					"attributes":{
						"POSITION":16,
						"NORMAL":17,
						"TEXCOORD_0":18
					},
					"indices":19,
					"material":0
				}
			]
		},
		{
			"name":"Cube.002",
			"primitives":[
				{
					"attributes":{
						"POSITION":20,
						"NORMAL":21,
						"TEXCOORD_0":22
					},
					"indices":23,
					"material":1
				}
			]
		},
		{
			"name":"Cylinder.002",
			"primitives":[
				{
					"attributes":{
						"POSITION":24,
						"NORMAL":25,
						"TEXCOORD_0":26
					},
					"indices":27,
					"material":0
				}
			]
		},
		{
			"name":"Cube.005",
			"primitives":[
				{
					"attributes":{
						"POSITION":28,
						"NORMAL":29,
						"TEXCOORD_0":30
					},
					"indices":31,
					"material":2
				}
			]
		}
	],
	"accessors":[
		{
			"bufferView":0,
			"componentType":5126,
			"count":198,
			"max":[
				0.0926918014883995,
				0.7614105343818665,
				0.11127439886331558
			],
			"min":[
				-0.14075878262519836,
				-0.44500935077667236,
				-0.10364022105932236
			],
			"type":"VEC3"
		},
		{
			"bufferView":1,
			"componentType":5126,
			"count":198,
			"type":"VEC3"
		},
		{
			"bufferView":2,
			"componentType":5126,
			"count":198,
			"type":"VEC2"
		},
		{
			"bufferView":3,
			"componentType":5123,
			"count":312,
			"type":"SCALAR"
		},
		{
			"bufferView":4,
			"componentType":5126,
			"count":112,
			"max":[
				0.035286374390125275,
				0.1454223245382309,
				0.36107683181762695
			],
			"min":[
				-0.029832005500793457,
				-0.15530169010162354,
				-0.3991859555244446
			],
			"type":"VEC3"
		},
		{
			"bufferView":5,
			"componentType":5126,
			"count":112,
			"type":"VEC3"
		},
		{
			"bufferView":6,
			"componentType":5126,
			"count":112,
			"type":"VEC2"
		},
		{
			"bufferView":7,
			"componentType":5123,
			"count":168,
			"type":"SCALAR"
		},
		{
			"bufferView":8,
			"componentType":5126,
			"count":112,
			"max":[
				0.0352545790374279,
				0.1310027539730072,
				0.36107683181762695
			],
			"min":[
				-0.03558698669075966,
				-0.15530169010162354,
				-0.4846389591693878
			],
			"type":"VEC3"
		},
		{
			"bufferView":9,
			"componentType":5126,
			"count":112,
			"type":"VEC3"
		},
		{
			"bufferView":10,
			"componentType":5126,
			"count":112,
			"type":"VEC2"
		},
		{
			"bufferView":11,
			"componentType":5123,
			"count":168,
			"type":"SCALAR"
		},
		{
			"bufferView":12,
			"componentType":5126,
			"count":112,
			"max":[
				0.03886059671640396,
				0.13210780918598175,
				0.2864694595336914
			],
			"min":[
				-0.04071545973420143,
				-0.11157845705747604,
				-0.34506750106811523
			],
			"type":"VEC3"
		},
		{
			"bufferView":13,
			"componentType":5126,
			"count":112,
			"type":"VEC3"
		},
		{
			"bufferView":14,
			"componentType":5126,
			"count":112,
			"type":"VEC2"
		},
		{
			"bufferView":15,
			"componentType":5123,
			"count":168,
			"type":"SCALAR"
		},
		{
			"bufferView":16,
			"componentType":5126,
			"count":214,
			"max":[
				0.1763574481010437,
				1.2269399166107178,
				0.15593722462654114
			],
			"min":[
				-0.1650409698486328,
				-0.5922147035598755,
				-0.14316904544830322
			],
			"type":"VEC3"
		},
		{
			"bufferView":17,
			"componentType":5126,
			"count":214,
			"type":"VEC3"
		},
		{
			"bufferView":18,
			"componentType":5126,
			"count":214,
			"type":"VEC2"
		},
		{
			"bufferView":19,
			"componentType":5123,
			"count":336,
			"type":"SCALAR"
		},
		{
			"bufferView":20,
			"componentType":5126,
			"count":112,
			"max":[
				0.032741665840148926,
				0.1303575485944748,
				0.26504600048065186
			],
			"min":[
				-0.04282011836767197,
				-0.14642858505249023,
				-0.47213059663772583
			],
			"type":"VEC3"
		},
		{
			"bufferView":21,
			"componentType":5126,
			"count":112,
			"type":"VEC3"
		},
		{
			"bufferView":22,
			"componentType":5126,
			"count":112,
			"type":"VEC2"
		},
		{
			"bufferView":23,
			"componentType":5123,
			"count":168,
			"type":"SCALAR"
		},
		{
			"bufferView":24,
			"componentType":5126,
			"count":198,
			"max":[
				0.09591402113437653,
				0.763847291469574,
				0.10758750140666962
			],
			"min":[
				-0.13965338468551636,
				-0.4447101354598999,
				-0.10691060870885849
			],
			"type":"VEC3"
		},
		{
			"bufferView":25,
			"componentType":5126,
			"count":198,
			"type":"VEC3"
		},
		{
			"bufferView":26,
			"componentType":5126,
			"count":198,
			"type":"VEC2"
		},
		{
			"bufferView":27,
			"componentType":5123,
			"count":312,
			"type":"SCALAR"
		},
		{
			"bufferView":28,
			"componentType":5126,
			"count":112,
			"max":[
				0.037750329822301865,
				0.1627068966627121,
				0.36027127504348755
			],
			"min":[
				-0.02985936775803566,
				-0.1354660540819168,
				-0.3925846219062805
			],
			"type":"VEC3"
		},
		{
			"bufferView":29,
			"componentType":5126,
			"count":112,
			"type":"VEC3"
		},
		{
			"bufferView":30,
			"componentType":5126,
			"count":112,
			"type":"VEC2"
		},
		{
			"bufferView":31,
			"componentType":5123,
			"count":168,
			"type":"SCALAR"
		}
	],
	"bufferViews":[
		{
			"buffer":0,
			"byteLength":2376,
			"byteOffset":0,
			"target":34962
		},
		{
			"buffer":0,
			"byteLength":2376,
			"byteOffset":2376,
			"target":34962
		},
		{
			"buffer":0,
			"byteLength":1584,
			"byteOffset":4752,
			"target":34962
		},
		{
			"buffer":0,
			"byteLength":624,
			"byteOffset":6336,
			"target":34963
		},
		{
			"buffer":0,
			"byteLength":1344,
			"byteOffset":6960,
			"target":34962
		},
		{
			"buffer":0,
			"byteLength":1344,
			"byteOffset":8304,
			"target":34962
		},
		{
			"buffer":0,
			"byteLength":896,
			"byteOffset":9648,
			"target":34962
		},
		{
			"buffer":0,
			"byteLength":336,
			"byteOffset":10544,
			"target":34963
		},
		{
			"buffer":0,
			"byteLength":1344,
			"byteOffset":10880,
			"target":34962
		},
		{
			"buffer":0,
			"byteLength":1344,
			"byteOffset":12224,
			"target":34962
		},
		{
			"buffer":0,
			"byteLength":896,
			"byteOffset":13568,
			"target":34962
		},
		{
			"buffer":0,
			"byteLength":336,
			"byteOffset":14464,
			"target":34963
		},
		{
			"buffer":0,
			"byteLength":1344,
			"byteOffset":14800,
			"target":34962
		},
		{
			"buffer":0,
			"byteLength":1344,
			"byteOffset":16144,
			"target":34962
		},
		{
			"buffer":0,
			"byteLength":896,
			"byteOffset":17488,
			"target":34962
		},
		{
			"buffer":0,
			"byteLength":336,
			"byteOffset":18384,
			"target":34963
		},
		{
			"buffer":0,
			"byteLength":2568,
			"byteOffset":18720,
			"target":34962
		},
		{
			"buffer":0,
			"byteLength":2568,
			"byteOffset":21288,
			"target":34962
		},
		{
			"buffer":0,
			"byteLength":1712,
			"byteOffset":23856,
			"target":34962
		},
		{
			"buffer":0,
			"byteLength":672,
			"byteOffset":25568,
			"target":34963
		},
		{
			"buffer":0,
			"byteLength":1344,
			"byteOffset":26240,
			"target":34962
		},
		{
			"buffer":0,
			"byteLength":1344,
			"byteOffset":27584,
			"target":34962
		},
		{
			"buffer":0,
			"byteLength":896,
			"byteOffset":28928,
			"target":34962
		},
		{
			"buffer":0,
			"byteLength":336,
			"byteOffset":29824,
			"target":34963
		},
		{
			"buffer":0,
			"byteLength":2376,
			"byteOffset":30160,
			"target":34962
		},
		{
			"buffer":0,
			"byteLength":2376,
			"byteOffset":32536,
			"target":34962
		},
		{
			"buffer":0,
			"byteLength":1584,
			"byteOffset":34912,
			"target":34962
		},
		{
			"buffer":0,
			"byteLength":624,
			"byteOffset":36496,
			"target":34963
		},
		{
			"buffer":0,
			"byteLength":1344,
			"byteOffset":37120,
			"target":34962
		},
		{
			"buffer":0,
			"byteLength":1344,
			"byteOffset":38464,
			"target":34962
		},
		{
			"buffer":0,
			"byteLength":896,
			"byteOffset":39808,
			"target":34962
		},
		{
			"buffer":0,
			"byteLength":336,
			"byteOffset":40704,
			"target":34963
		}
	],
	"buffers":[
		{
			"byteLength":41040,
			"uri":"signs.bin"
		}
	]
}
