{
	"asset":{
		"generator":"Khronos glTF Blender I/O v4.0.44",
		"version":"2.0"
	},
	"scene":0,
	"scenes":[
		{
			"name":"Scene",
			"nodes":[
				1,
				3,
				4,
				5,
				6,
				7
			]
		}
	],
	"nodes":[
		{
			"name":"BezierCurve"
		},
		{
			"children":[
				0
			],
			"mesh":0,
			"name":"Text",
			"rotation":[
				0.7071068286895752,
				0,
				0,
				0.7071068286895752
			],
			"translation":[
				0,
				2.8174381256103516,
				0.060499999672174454
			]
		},
		{
			"name":"Empty",
			"rotation":[
				0.5,
				0.5,
				-0.5,
				0.5
			],
			"scale":[
				1,
				1.0649999380111694,
				0.7599999904632568
			],
			"translation":[
				0,
				3.4322357177734375,
				0
			]
		},
		{
			"children":[
				2
			],
			"mesh":1,
			"name":"Sign"
		},
		{
			"mesh":2,
			"name":"Post2",
			"scale":[
				0.30000001192092896,
				2.75,
				0.30000001192092896
			],
			"translation":[
				-1.899999976158142,
				1.600000023841858,
				-0.30000001192092896
			]
		},
		{
			"mesh":3,
			"name":"Post1",
			"scale":[
				0.30000001192092896,
				2.75,
				0.30000001192092896
			],
			"translation":[
				1.899999976158142,
				1.600000023841858,
				-0.30000001192092896
			]
		},
		{
			"mesh":4,
			"name":"Vine"
		},
		{
			"mesh":5,
			"name":"Leaf",
			"translation":[
				0,
				0,
				-0.0497722253203392
			]
		}
	],
	"meshes":[
		{
			"name":"Text",
			"primitives":[
				{
					"attributes":{
						"POSITION":0,
						"NORMAL":1,
						"TEXCOORD_0":2,
						"TANGENT":3
					},
					"indices":4
				}
			]
		},
		{
			"name":"Sign",
			"primitives":[
				{
					"attributes":{
						"POSITION":5,
						"NORMAL":6,
						"TEXCOORD_0":7,
						"TANGENT":8
					},
					"indices":9
				}
			]
		},
		{
			"name":"Mesh",
			"primitives":[
				{
					"attributes":{
						"POSITION":10,
						"NORMAL":11,
						"TEXCOORD_0":12,
						"TANGENT":13
					},
					"indices":14
				}
			]
		},
		{
			"name":"Mesh",
			"primitives":[
				{
					"attributes":{
						"POSITION":15,
						"NORMAL":16,
						"TEXCOORD_0":17,
						"TANGENT":18
					},
					"indices":14
				}
			]
		},
		{
			"name":"BezierCurve.001",
			"primitives":[
				{
					"attributes":{
						"POSITION":19,
						"NORMAL":20,
						"TEXCOORD_0":21,
						"TANGENT":22
					},
					"indices":23
				}
			]
		},
		{
			"name":"Plane",
			"primitives":[
				{
					"attributes":{
						"POSITION":24,
						"NORMAL":25,
						"TEXCOORD_0":26,
						"TANGENT":27
					},
					"indices":28
				}
			]
		}
	],
	"accessors":[
		{
			"bufferView":0,
			"componentType":5126,
			"count":31516,
			"max":[
				2.025683641433716,
				0.06000000238418579,
				-0.016004439443349838
			],
			"min":[
				-2.0466926097869873,
				-0.06000000238418579,
				-1.2703232765197754
			],
			"type":"VEC3"
		},
		{
			"bufferView":1,
			"componentType":5126,
			"count":31516,
			"type":"VEC3"
		},
		{
			"bufferView":2,
			"componentType":5126,
			"count":31516,
			"type":"VEC2"
		},
		{
			"bufferView":3,
			"componentType":5126,
			"count":31516,
			"type":"VEC4"
		},
		{
			"bufferView":4,
			"componentType":5123,
			"count":125796,
			"type":"SCALAR"
		},
		{
			"bufferView":5,
			"componentType":5126,
			"count":664,
			"max":[
				2.6000256538391113,
				4.191256046295166,
				4.480469328882464e-08
			],
			"min":[
				-2.6000256538391113,
				2.5711758136749268,
				-0.1000000387430191
			],
			"type":"VEC3"
		},
		{
			"bufferView":6,
			"componentType":5126,
			"count":664,
			"type":"VEC3"
		},
		{
			"bufferView":7,
			"componentType":5126,
			"count":664,
			"type":"VEC2"
		},
		{
			"bufferView":8,
			"componentType":5126,
			"count":664,
			"type":"VEC4"
		},
		{
			"bufferView":9,
			"componentType":5123,
			"count":996,
			"type":"SCALAR"
		},
		{
			"bufferView":10,
			"componentType":5126,
			"count":8365,
			"max":[
				0.9936952590942383,
				1.000000238418579,
				0.9936952590942383
			],
			"min":[
				-0.9936952590942383,
				-1.000000238418579,
				-0.9936952590942383
			],
			"type":"VEC3"
		},
		{
			"bufferView":11,
			"componentType":5126,
			"count":8365,
			"type":"VEC3"
		},
		{
			"bufferView":12,
			"componentType":5126,
			"count":8365,
			"type":"VEC2"
		},
		{
			"bufferView":13,
			"componentType":5126,
			"count":8365,
			"type":"VEC4"
		},
		{
			"bufferView":14,
			"componentType":5123,
			"count":18432,
			"type":"SCALAR"
		},
		{
			"bufferView":15,
			"componentType":5126,
			"count":8365,
			"max":[
				0.9936952590942383,
				1.000000238418579,
				0.9936952590942383
			],
			"min":[
				-0.9936952590942383,
				-1.000000238418579,
				-0.9936952590942383
			],
			"type":"VEC3"
		},
		{
			"bufferView":16,
			"componentType":5126,
			"count":8365,
			"type":"VEC3"
		},
		{
			"bufferView":17,
			"componentType":5126,
			"count":8365,
			"type":"VEC2"
		},
		{
			"bufferView":18,
			"componentType":5126,
			"count":8365,
			"type":"VEC4"
		},
		{
			"bufferView":19,
			"componentType":5126,
			"count":105561,
			"max":[
				2.560169219970703,
				4.4438934326171875,
				0.14892378449440002
			],
			"min":[
				-2.560727596282959,
				-1.1846979856491089,
				-0.7763156294822693
			],
			"type":"VEC3"
		},
		{
			"bufferView":20,
			"componentType":5126,
			"count":105561,
			"type":"VEC3"
		},
		{
			"bufferView":21,
			"componentType":5126,
			"count":105561,
			"type":"VEC2"
		},
		{
			"bufferView":22,
			"componentType":5126,
			"count":105561,
			"type":"VEC4"
		},
		{
			"bufferView":23,
			"componentType":5125,
			"count":464928,
			"type":"SCALAR"
		},
		{
			"bufferView":24,
			"componentType":5126,
			"count":25,
			"max":[
				0.05000000074505806,
				0.026979438960552216,
				0.05046337842941284
			],
			"min":[
				-0.05000000074505806,
				0,
				-0.05000000074505806
			],
			"type":"VEC3"
		},
		{
			"bufferView":25,
			"componentType":5126,
			"count":25,
			"type":"VEC3"
		},
		{
			"bufferView":26,
			"componentType":5126,
			"count":25,
			"type":"VEC2"
		},
		{
			"bufferView":27,
			"componentType":5126,
			"count":25,
			"type":"VEC4"
		},
		{
			"bufferView":28,
			"componentType":5123,
			"count":96,
			"type":"SCALAR"
		}
	],
	"bufferViews":[
		{
			"buffer":0,
			"byteLength":378192,
			"byteOffset":0,
			"target":34962
		},
		{
			"buffer":0,
			"byteLength":378192,
			"byteOffset":378192,
			"target":34962
		},
		{
			"buffer":0,
			"byteLength":252128,
			"byteOffset":756384,
			"target":34962
		},
		{
			"buffer":0,
			"byteLength":504256,
			"byteOffset":1008512,
			"target":34962
		},
		{
			"buffer":0,
			"byteLength":251592,
			"byteOffset":1512768,
			"target":34963
		},
		{
			"buffer":0,
			"byteLength":7968,
			"byteOffset":1764360,
			"target":34962
		},
		{
			"buffer":0,
			"byteLength":7968,
			"byteOffset":1772328,
			"target":34962
		},
		{
			"buffer":0,
			"byteLength":5312,
			"byteOffset":1780296,
			"target":34962
		},
		{
			"buffer":0,
			"byteLength":10624,
			"byteOffset":1785608,
			"target":34962
		},
		{
			"buffer":0,
			"byteLength":1992,
			"byteOffset":1796232,
			"target":34963
		},
		{
			"buffer":0,
			"byteLength":100380,
			"byteOffset":1798224,
			"target":34962
		},
		{
			"buffer":0,
			"byteLength":100380,
			"byteOffset":1898604,
			"target":34962
		},
		{
			"buffer":0,
			"byteLength":66920,
			"byteOffset":1998984,
			"target":34962
		},
		{
			"buffer":0,
			"byteLength":133840,
			"byteOffset":2065904,
			"target":34962
		},
		{
			"buffer":0,
			"byteLength":36864,
			"byteOffset":2199744,
			"target":34963
		},
		{
			"buffer":0,
			"byteLength":100380,
			"byteOffset":2236608,
			"target":34962
		},
		{
			"buffer":0,
			"byteLength":100380,
			"byteOffset":2336988,
			"target":34962
		},
		{
			"buffer":0,
			"byteLength":66920,
			"byteOffset":2437368,
			"target":34962
		},
		{
			"buffer":0,
			"byteLength":133840,
			"byteOffset":2504288,
			"target":34962
		},
		{
			"buffer":0,
			"byteLength":1266732,
			"byteOffset":2638128,
			"target":34962
		},
		{
			"buffer":0,
			"byteLength":1266732,
			"byteOffset":3904860,
			"target":34962
		},
		{
			"buffer":0,
			"byteLength":844488,
			"byteOffset":5171592,
			"target":34962
		},
		{
			"buffer":0,
			"byteLength":1688976,
			"byteOffset":6016080,
			"target":34962
		},
		{
			"buffer":0,
			"byteLength":1859712,
			"byteOffset":7705056,
			"target":34963
		},
		{
			"buffer":0,
			"byteLength":300,
			"byteOffset":9564768,
			"target":34962
		},
		{
			"buffer":0,
			"byteLength":300,
			"byteOffset":9565068,
			"target":34962
		},
		{
			"buffer":0,
			"byteLength":200,
			"byteOffset":9565368,
			"target":34962
		},
		{
			"buffer":0,
			"byteLength":400,
			"byteOffset":9565568,
			"target":34962
		},
		{
			"buffer":0,
			"byteLength":192,
			"byteOffset":9565968,
			"target":34963
		}
	],
	"buffers":[
		{
			"byteLength":9566160,
			"uri":"IslandSign.bin"
		}
	]
}
