{
	"asset":{
		"generator":"Khronos glTF Blender I/O v4.0.44",
		"version":"2.0"
	},
	"scene":0,
	"scenes":[
		{
			"name":"Scene",
			"nodes":[
				0
			]
		}
	],
	"nodes":[
		{
			"mesh":0,
			"name":"Head",
			"translation":[
				0,
				2.689439296722412,
				0
			]
		}
	],
	"animations":[
		{
			"channels":[
				{
					"sampler":0,
					"target":{
						"node":0,
						"path":"rotation"
					}
				}
			],
			"name":"HeadAction",
			"samplers":[
				{
					"input":4,
					"interpolation":"LINEAR",
					"output":5
				}
			]
		}
	],
	"materials":[
		{
			"doubleSided":true,
			"name":"Material.006",
			"pbrMetallicRoughness":{
				"baseColorTexture":{
					"index":0
				},
				"metallicFactor":0,
				"roughnessFactor":0.5
			}
		}
	],
	"meshes":[
		{
			"name":"Mesh.002",
			"primitives":[
				{
					"attributes":{
						"POSITION":0,
						"NORMAL":1,
						"TEXCOORD_0":2
					},
					"indices":3,
					"material":0
				}
			]
		}
	],
	"textures":[
		{
			"sampler":0,
			"source":0
		}
	],
	"images":[
		{
			"mimeType":"image/png",
			"name":"BakeTo",
			"uri":"CubHeadText/BakeTo.png"
		}
	],
	"accessors":[
		{
			"bufferView":0,
			"componentType":5126,
			"count":12166,
			"max":[
				2.731091260910034,
				3.172028064727783,
				1.7302095890045166
			],
			"min":[
				-2.7563300132751465,
				-1.7746200561523438,
				-2.357149600982666
			],
			"type":"VEC3"
		},
		{
			"bufferView":1,
			"componentType":5126,
			"count":12166,
			"type":"VEC3"
		},
		{
			"bufferView":2,
			"componentType":5126,
			"count":12166,
			"type":"VEC2"
		},
		{
			"bufferView":3,
			"componentType":5123,
			"count":54783,
			"type":"SCALAR"
		},
		{
			"bufferView":4,
			"componentType":5126,
			"count":200,
			"max":[
				8.333333333333334
			],
			"min":[
				0.041666666666666664
			],
			"type":"SCALAR"
		},
		{
			"bufferView":5,
			"componentType":5126,
			"count":200,
			"type":"VEC4"
		}
	],
	"bufferViews":[
		{
			"buffer":0,
			"byteLength":145992,
			"byteOffset":0,
			"target":34962
		},
		{
			"buffer":0,
			"byteLength":145992,
			"byteOffset":145992,
			"target":34962
		},
		{
			"buffer":0,
			"byteLength":97328,
			"byteOffset":291984,
			"target":34962
		},
		{
			"buffer":0,
			"byteLength":109566,
			"byteOffset":389312,
			"target":34963
		},
		{
			"buffer":0,
			"byteLength":800,
			"byteOffset":498880
		},
		{
			"buffer":0,
			"byteLength":3200,
			"byteOffset":499680
		}
	],
	"samplers":[
		{
			"magFilter":9729,
			"minFilter":9987
		}
	],
	"buffers":[
		{
			"byteLength":502880,
			"uri":"cubHead.bin"
		}
	]
}
