{
	"asset":{
		"generator":"Khronos glTF Blender I/O v4.0.44",
		"version":"2.0"
	},
	"extensionsUsed":[
		"KHR_texture_transform"
	],
	"extensionsRequired":[
		"KHR_texture_transform"
	],
	"scene":0,
	"scenes":[
		{
			"name":"Scene",
			"nodes":[
				0,
				1,
				2,
				3,
				4,
				5
			]
		}
	],
	"nodes":[
		{
			"mesh":0,
			"name":"Tree",
			"scale":[
				1,
				5.784772872924805,
				1
			]
		},
		{
			"mesh":1,
			"name":"TopHut",
			"rotation":[
				0,
				-0.1784304678440094,
				0,
				0.983952522277832
			],
			"scale":[
				0.8287469744682312,
				0.21106724441051483,
				0.8287469744682312
			],
			"translation":[
				-1.147395133972168,
				10.315091133117676,
				1.4086376428604126
			]
		},
		{
			"mesh":2,
			"name":"LowerHut",
			"rotation":[
				0,
				-0.31964895129203796,
				0,
				0.947536051273346
			],
			"scale":[
				0.556032121181488,
				0.14161154627799988,
				0.556032121181488
			],
			"translation":[
				0.8253229260444641,
				8.268644332885742,
				1.6465414762496948
			]
		},
		{
			"mesh":3,
			"name":"Bridge",
			"rotation":[
				0.5005858540534973,
				-0.500585675239563,
				-0.49941354990005493,
				0.4994136691093445
			],
			"scale":[
				0.0692678689956665,
				0.5046406388282776,
				0.06926777213811874
			],
			"translation":[
				5.430599212646484,
				6.433798313140869,
				0.14150308072566986
			]
		},
		{
			"mesh":4,
			"name":"TopBase",
			"rotation":[
				0.5755640864372253,
				-0.4107627272605896,
				0.4107627868652344,
				0.5755640268325806
			],
			"scale":[
				0.08289758116006851,
				0.08289758116006851,
				0.08289758116006851
			],
			"translation":[
				-0.008951790630817413,
				9.100357055664062,
				0.1613510698080063
			]
		},
		{
			"mesh":5,
			"name":"LowerBase",
			"rotation":[
				1,
				0,
				0,
				0
			],
			"scale":[
				-1,
				-1,
				-1
			],
			"translation":[
				0.18035902082920074,
				0,
				2.68742299079895
			]
		}
	],
	"materials":[
		{
			"doubleSided":true,
			"name":"Tree Bark",
			"normalTexture":{
				"extensions":{
					"KHR_texture_transform":{
						"offset":[
							0,
							-0.5
						],
						"scale":[
							1.5,
							1.5
						]
					}
				},
				"index":0,
				"scale":3,
				"texCoord":1
			},
			"pbrMetallicRoughness":{
				"baseColorTexture":{
					"extensions":{
						"KHR_texture_transform":{
							"offset":[
								0,
								-0.5
							],
							"scale":[
								1.5,
								1.5
							]
						}
					},
					"index":1,
					"texCoord":1
				},
				"metallicFactor":0,
				"metallicRoughnessTexture":{
					"extensions":{
						"KHR_texture_transform":{
							"offset":[
								0,
								-0.5
							],
							"scale":[
								1.5,
								1.5
							]
						}
					},
					"index":2,
					"texCoord":1
				}
			}
		},
		{
			"doubleSided":true,
			"name":"thatch_roof_angled",
			"normalTexture":{
				"index":3
			},
			"pbrMetallicRoughness":{
				"baseColorTexture":{
					"index":4
				},
				"metallicFactor":0,
				"metallicRoughnessTexture":{
					"index":5
				}
			}
		},
		{
			"doubleSided":true,
			"name":"Hay",
			"normalTexture":{
				"index":6,
				"scale":10
			},
			"pbrMetallicRoughness":{
				"baseColorTexture":{
					"index":7
				},
				"metallicFactor":0,
				"metallicRoughnessTexture":{
					"index":8
				}
			}
		},
		{
			"doubleSided":true,
			"name":"thatch_roof_angled",
			"normalTexture":{
				"index":3,
				"texCoord":1
			},
			"pbrMetallicRoughness":{
				"baseColorTexture":{
					"index":4,
					"texCoord":1
				},
				"metallicFactor":0,
				"metallicRoughnessTexture":{
					"index":5,
					"texCoord":1
				}
			}
		},
		{
			"doubleSided":true,
			"name":"Hay",
			"normalTexture":{
				"index":6,
				"scale":10,
				"texCoord":1
			},
			"pbrMetallicRoughness":{
				"baseColorTexture":{
					"index":7,
					"texCoord":1
				},
				"metallicFactor":0,
				"metallicRoughnessTexture":{
					"index":8,
					"texCoord":1
				}
			}
		},
		{
			"doubleSided":true,
			"name":"Procedural Grass",
			"pbrMetallicRoughness":{}
		},
		{
			"doubleSided":true,
			"name":"Tree Bark",
			"normalTexture":{
				"extensions":{
					"KHR_texture_transform":{
						"offset":[
							0,
							-0.5
						],
						"scale":[
							1.5,
							1.5
						]
					}
				},
				"index":0,
				"scale":3
			},
			"pbrMetallicRoughness":{
				"baseColorTexture":{
					"extensions":{
						"KHR_texture_transform":{
							"offset":[
								0,
								-0.5
							],
							"scale":[
								1.5,
								1.5
							]
						}
					},
					"index":1
				},
				"metallicFactor":0,
				"metallicRoughnessTexture":{
					"extensions":{
						"KHR_texture_transform":{
							"offset":[
								0,
								-0.5
							],
							"scale":[
								1.5,
								1.5
							]
						}
					},
					"index":2
				}
			}
		}
	],
	"meshes":[
		{
			"name":"Cylinder",
			"primitives":[
				{
					"attributes":{
						"POSITION":0,
						"NORMAL":1,
						"TEXCOORD_0":2,
						"TEXCOORD_1":3
					},
					"indices":4,
					"material":0
				}
			]
		},
		{
			"name":"Cone.011",
			"primitives":[
				{
					"attributes":{
						"POSITION":5,
						"NORMAL":6,
						"TEXCOORD_0":7
					},
					"indices":8,
					"material":1
				},
				{
					"attributes":{
						"POSITION":9,
						"NORMAL":10,
						"TEXCOORD_0":11
					},
					"indices":12,
					"material":2
				}
			]
		},
		{
			"name":"Cone.010",
			"primitives":[
				{
					"attributes":{
						"POSITION":13,
						"NORMAL":14,
						"TEXCOORD_0":15,
						"TEXCOORD_1":16
					},
					"indices":17,
					"material":3
				},
				{
					"attributes":{
						"POSITION":18,
						"NORMAL":19,
						"TEXCOORD_0":20,
						"TEXCOORD_1":21
					},
					"indices":12,
					"material":4
				}
			]
		},
		{
			"name":"Cylinder.029",
			"primitives":[
				{
					"attributes":{
						"POSITION":22,
						"NORMAL":23,
						"TEXCOORD_0":24,
						"TEXCOORD_1":25
					},
					"indices":26,
					"material":0
				}
			]
		},
		{
			"name":"Cylinder.008",
			"primitives":[
				{
					"attributes":{
						"POSITION":27,
						"NORMAL":28,
						"TEXCOORD_0":29,
						"TEXCOORD_1":30
					},
					"indices":31,
					"material":0
				},
				{
					"attributes":{
						"POSITION":32,
						"NORMAL":33,
						"TEXCOORD_0":34,
						"TEXCOORD_1":35
					},
					"indices":36,
					"material":5
				}
			]
		},
		{
			"name":"Cylinder.006",
			"primitives":[
				{
					"attributes":{
						"POSITION":37,
						"NORMAL":38,
						"TEXCOORD_0":39,
						"TEXCOORD_1":40
					},
					"indices":41,
					"material":6
				},
				{
					"attributes":{
						"POSITION":42,
						"NORMAL":43,
						"TEXCOORD_0":44,
						"TEXCOORD_1":45
					},
					"indices":46,
					"material":5
				}
			]
		}
	],
	"textures":[
		{
			"sampler":0,
			"source":0
		},
		{
			"sampler":0,
			"source":1
		},
		{
			"sampler":0,
			"source":2
		},
		{
			"sampler":0,
			"source":3
		},
		{
			"sampler":0,
			"source":4
		},
		{
			"sampler":0,
			"source":5
		},
		{
			"sampler":0,
			"source":6
		},
		{
			"sampler":0,
			"source":7
		},
		{
			"sampler":0,
			"source":8
		}
	],
	"images":[
		{
			"mimeType":"image/jpeg",
			"name":"tree-bark-1_bump",
			"uri":"GltfTexts/tree-bark-1_bump.jpg"
		},
		{
			"mimeType":"image/jpeg",
			"name":"tree-bark-1_diffuse",
			"uri":"GltfTexts/tree-bark-1_diffuse.jpg"
		},
		{
			"mimeType":"image/png",
			"name":"tree-bark-1_smooth",
			"uri":"GltfTexts/tree-bark-1_smooth.png"
		},
		{
			"mimeType":"image/png",
			"name":"thatch_roof_angled_nor_gl_8k",
			"uri":"GltfTexts/thatch_roof_angled_nor_gl_8k.png"
		},
		{
			"mimeType":"image/jpeg",
			"name":"thatch_roof_angled_diff_8k",
			"uri":"GltfTexts/thatch_roof_angled_diff_8k.jpg"
		},
		{
			"mimeType":"image/png",
			"name":"thatch_roof_angled_rough_8k",
			"uri":"GltfTexts/thatch_roof_angled_rough_8k.png"
		},
		{
			"mimeType":"image/jpeg",
			"name":"Hay_normal",
			"uri":"GltfTexts/Hay_normal.jpg"
		},
		{
			"mimeType":"image/jpeg",
			"name":"Hay_diffuse",
			"uri":"GltfTexts/Hay_diffuse.jpg"
		},
		{
			"mimeType":"image/png",
			"name":"Hay_roughness",
			"uri":"GltfTexts/Hay_roughness.png"
		}
	],
	"accessors":[
		{
			"bufferView":0,
			"componentType":5126,
			"count":66,
			"max":[
				1,
				1.9996885061264038,
				1
			],
			"min":[
				-1,
				-0.000311434268951416,
				-1
			],
			"type":"VEC3"
		},
		{
			"bufferView":1,
			"componentType":5126,
			"count":66,
			"type":"VEC3"
		},
		{
			"bufferView":2,
			"componentType":5126,
			"count":66,
			"type":"VEC2"
		},
		{
			"bufferView":3,
			"componentType":5126,
			"count":66,
			"type":"VEC2"
		},
		{
			"bufferView":4,
			"componentType":5123,
			"count":192,
			"type":"SCALAR"
		},
		{
			"bufferView":5,
			"componentType":5126,
			"count":260,
			"max":[
				1,
				2.0973072052001953,
				1
			],
			"min":[
				-1,
				-1,
				-1
			],
			"type":"VEC3"
		},
		{
			"bufferView":6,
			"componentType":5126,
			"count":260,
			"type":"VEC3"
		},
		{
			"bufferView":7,
			"componentType":5126,
			"count":260,
			"type":"VEC2"
		},
		{
			"bufferView":8,
			"componentType":5123,
			"count":744,
			"type":"SCALAR"
		},
		{
			"bufferView":9,
			"componentType":5126,
			"count":461,
			"max":[
				0.8385077118873596,
				0.2395648956298828,
				0.846340000629425
			],
			"min":[
				-0.7751320004463196,
				-6.22780704498291,
				-0.8796361684799194
			],
			"type":"VEC3"
		},
		{
			"bufferView":10,
			"componentType":5126,
			"count":461,
			"type":"VEC3"
		},
		{
			"bufferView":11,
			"componentType":5126,
			"count":461,
			"type":"VEC2"
		},
		{
			"bufferView":12,
			"componentType":5123,
			"count":2400,
			"type":"SCALAR"
		},
		{
			"bufferView":13,
			"componentType":5126,
			"count":272,
			"max":[
				1.7083905935287476,
				1,
				1.7083905935287476
			],
			"min":[
				-1.7083905935287476,
				-4.291707515716553,
				-1.7083905935287476
			],
			"type":"VEC3"
		},
		{
			"bufferView":14,
			"componentType":5126,
			"count":272,
			"type":"VEC3"
		},
		{
			"bufferView":15,
			"componentType":5126,
			"count":272,
			"type":"VEC2"
		},
		{
			"bufferView":16,
			"componentType":5126,
			"count":272,
			"type":"VEC2"
		},
		{
			"bufferView":17,
			"componentType":5123,
			"count":744,
			"type":"SCALAR"
		},
		{
			"bufferView":18,
			"componentType":5126,
			"count":461,
			"max":[
				1.4746428728103638,
				-1.598616600036621,
				1.2634586095809937
			],
			"min":[
				-1.4746417999267578,
				-12.604037284851074,
				-1.477831482887268
			],
			"type":"VEC3"
		},
		{
			"bufferView":19,
			"componentType":5126,
			"count":461,
			"type":"VEC3"
		},
		{
			"bufferView":20,
			"componentType":5126,
			"count":461,
			"type":"VEC2"
		},
		{
			"bufferView":21,
			"componentType":5126,
			"count":461,
			"type":"VEC2"
		},
		{
			"bufferView":22,
			"componentType":5126,
			"count":11756,
			"max":[
				6.118340492248535,
				0.4029596447944641,
				45.11058807373047
			],
			"min":[
				-6.043129920959473,
				-1.605717658996582,
				-47.59006118774414
			],
			"type":"VEC3"
		},
		{
			"bufferView":23,
			"componentType":5126,
			"count":11756,
			"type":"VEC3"
		},
		{
			"bufferView":24,
			"componentType":5126,
			"count":11756,
			"type":"VEC2"
		},
		{
			"bufferView":25,
			"componentType":5126,
			"count":11756,
			"type":"VEC2"
		},
		{
			"bufferView":26,
			"componentType":5123,
			"count":29088,
			"type":"SCALAR"
		},
		{
			"bufferView":27,
			"componentType":5126,
			"count":24818,
			"max":[
				30.23511505126953,
				30.29874610900879,
				32.622962951660156
			],
			"min":[
				-30.233478546142578,
				-30.16975975036621,
				-5.448916435241699
			],
			"type":"VEC3"
		},
		{
			"bufferView":28,
			"componentType":5126,
			"count":24818,
			"type":"VEC3"
		},
		{
			"bufferView":29,
			"componentType":5126,
			"count":24818,
			"type":"VEC2"
		},
		{
			"bufferView":30,
			"componentType":5126,
			"count":24818,
			"type":"VEC2"
		},
		{
			"bufferView":31,
			"componentType":5123,
			"count":61008,
			"type":"SCALAR"
		},
		{
			"bufferView":32,
			"componentType":5126,
			"count":4336,
			"max":[
				17.009660720825195,
				16.65184783935547,
				13.453510284423828
			],
			"min":[
				-17.48421287536621,
				-17.83800506591797,
				6.2580718994140625
			],
			"type":"VEC3"
		},
		{
			"bufferView":33,
			"componentType":5126,
			"count":4336,
			"type":"VEC3"
		},
		{
			"bufferView":34,
			"componentType":5126,
			"count":4336,
			"type":"VEC2"
		},
		{
			"bufferView":35,
			"componentType":5126,
			"count":4336,
			"type":"VEC2"
		},
		{
			"bufferView":36,
			"componentType":5123,
			"count":24192,
			"type":"SCALAR"
		},
		{
			"bufferView":37,
			"componentType":5126,
			"count":25216,
			"max":[
				2.6939313411712646,
				6.84808874130249,
				0.02598978579044342
			],
			"min":[
				-2.3182101249694824,
				-0.0022143125534057617,
				-5.026996612548828
			],
			"type":"VEC3"
		},
		{
			"bufferView":38,
			"componentType":5126,
			"count":25216,
			"type":"VEC3"
		},
		{
			"bufferView":39,
			"componentType":5126,
			"count":25216,
			"type":"VEC2"
		},
		{
			"bufferView":40,
			"componentType":5126,
			"count":25216,
			"type":"VEC2"
		},
		{
			"bufferView":41,
			"componentType":5123,
			"count":61674,
			"type":"SCALAR"
		},
		{
			"bufferView":42,
			"componentType":5126,
			"count":9216,
			"max":[
				1.5587220191955566,
				5.831429958343506,
				-1.1003680229187012
			],
			"min":[
				-1.1605515480041504,
				5.2073235511779785,
				-3.9722001552581787
			],
			"type":"VEC3"
		},
		{
			"bufferView":43,
			"componentType":5126,
			"count":9216,
			"type":"VEC3"
		},
		{
			"bufferView":44,
			"componentType":5126,
			"count":9216,
			"type":"VEC2"
		},
		{
			"bufferView":45,
			"componentType":5126,
			"count":9216,
			"type":"VEC2"
		},
		{
			"bufferView":46,
			"componentType":5123,
			"count":13824,
			"type":"SCALAR"
		}
	],
	"bufferViews":[
		{
			"buffer":0,
			"byteLength":792,
			"byteOffset":0,
			"target":34962
		},
		{
			"buffer":0,
			"byteLength":792,
			"byteOffset":792,
			"target":34962
		},
		{
			"buffer":0,
			"byteLength":528,
			"byteOffset":1584,
			"target":34962
		},
		{
			"buffer":0,
			"byteLength":528,
			"byteOffset":2112,
			"target":34962
		},
		{
			"buffer":0,
			"byteLength":384,
			"byteOffset":2640,
			"target":34963
		},
		{
			"buffer":0,
			"byteLength":3120,
			"byteOffset":3024,
			"target":34962
		},
		{
			"buffer":0,
			"byteLength":3120,
			"byteOffset":6144,
			"target":34962
		},
		{
			"buffer":0,
			"byteLength":2080,
			"byteOffset":9264,
			"target":34962
		},
		{
			"buffer":0,
			"byteLength":1488,
			"byteOffset":11344,
			"target":34963
		},
		{
			"buffer":0,
			"byteLength":5532,
			"byteOffset":12832,
			"target":34962
		},
		{
			"buffer":0,
			"byteLength":5532,
			"byteOffset":18364,
			"target":34962
		},
		{
			"buffer":0,
			"byteLength":3688,
			"byteOffset":23896,
			"target":34962
		},
		{
			"buffer":0,
			"byteLength":4800,
			"byteOffset":27584,
			"target":34963
		},
		{
			"buffer":0,
			"byteLength":3264,
			"byteOffset":32384,
			"target":34962
		},
		{
			"buffer":0,
			"byteLength":3264,
			"byteOffset":35648,
			"target":34962
		},
		{
			"buffer":0,
			"byteLength":2176,
			"byteOffset":38912,
			"target":34962
		},
		{
			"buffer":0,
			"byteLength":2176,
			"byteOffset":41088,
			"target":34962
		},
		{
			"buffer":0,
			"byteLength":1488,
			"byteOffset":43264,
			"target":34963
		},
		{
			"buffer":0,
			"byteLength":5532,
			"byteOffset":44752,
			"target":34962
		},
		{
			"buffer":0,
			"byteLength":5532,
			"byteOffset":50284,
			"target":34962
		},
		{
			"buffer":0,
			"byteLength":3688,
			"byteOffset":55816,
			"target":34962
		},
		{
			"buffer":0,
			"byteLength":3688,
			"byteOffset":59504,
			"target":34962
		},
		{
			"buffer":0,
			"byteLength":141072,
			"byteOffset":63192,
			"target":34962
		},
		{
			"buffer":0,
			"byteLength":141072,
			"byteOffset":204264,
			"target":34962
		},
		{
			"buffer":0,
			"byteLength":94048,
			"byteOffset":345336,
			"target":34962
		},
		{
			"buffer":0,
			"byteLength":94048,
			"byteOffset":439384,
			"target":34962
		},
		{
			"buffer":0,
			"byteLength":58176,
			"byteOffset":533432,
			"target":34963
		},
		{
			"buffer":0,
			"byteLength":297816,
			"byteOffset":591608,
			"target":34962
		},
		{
			"buffer":0,
			"byteLength":297816,
			"byteOffset":889424,
			"target":34962
		},
		{
			"buffer":0,
			"byteLength":198544,
			"byteOffset":1187240,
			"target":34962
		},
		{
			"buffer":0,
			"byteLength":198544,
			"byteOffset":1385784,
			"target":34962
		},
		{
			"buffer":0,
			"byteLength":122016,
			"byteOffset":1584328,
			"target":34963
		},
		{
			"buffer":0,
			"byteLength":52032,
			"byteOffset":1706344,
			"target":34962
		},
		{
			"buffer":0,
			"byteLength":52032,
			"byteOffset":1758376,
			"target":34962
		},
		{
			"buffer":0,
			"byteLength":34688,
			"byteOffset":1810408,
			"target":34962
		},
		{
			"buffer":0,
			"byteLength":34688,
			"byteOffset":1845096,
			"target":34962
		},
		{
			"buffer":0,
			"byteLength":48384,
			"byteOffset":1879784,
			"target":34963
		},
		{
			"buffer":0,
			"byteLength":302592,
			"byteOffset":1928168,
			"target":34962
		},
		{
			"buffer":0,
			"byteLength":302592,
			"byteOffset":2230760,
			"target":34962
		},
		{
			"buffer":0,
			"byteLength":201728,
			"byteOffset":2533352,
			"target":34962
		},
		{
			"buffer":0,
			"byteLength":201728,
			"byteOffset":2735080,
			"target":34962
		},
		{
			"buffer":0,
			"byteLength":123348,
			"byteOffset":2936808,
			"target":34963
		},
		{
			"buffer":0,
			"byteLength":110592,
			"byteOffset":3060156,
			"target":34962
		},
		{
			"buffer":0,
			"byteLength":110592,
			"byteOffset":3170748,
			"target":34962
		},
		{
			"buffer":0,
			"byteLength":73728,
			"byteOffset":3281340,
			"target":34962
		},
		{
			"buffer":0,
			"byteLength":73728,
			"byteOffset":3355068,
			"target":34962
		},
		{
			"buffer":0,
			"byteLength":27648,
			"byteOffset":3428796,
			"target":34963
		}
	],
	"samplers":[
		{
			"magFilter":9729,
			"minFilter":9987
		}
	],
	"buffers":[
		{
			"byteLength":3456444,
			"uri":"SortedTree.bin"
		}
	]
}
