{
	"asset":{
		"generator":"Khronos glTF Blender I/O v4.0.44",
		"version":"2.0"
	},
	"scene":0,
	"scenes":[
		{
			"name":"Scene",
			"nodes":[
				0,
				1,
				2,
				3,
				4,
				5,
				6,
				7
			]
		}
	],
	"nodes":[
		{
			"mesh":0,
			"name":"post1",
			"rotation":[
				0,
				0.61566162109375,
				0,
				0.7880106568336487
			],
			"translation":[
				2.469602584838867,
				1.942206859588623,
				2.4435617923736572
			]
		},
		{
			"mesh":1,
			"name":"post2",
			"rotation":[
				0,
				0.61566162109375,
				0,
				0.7880106568336487
			],
			"translation":[
				2.469602584838867,
				1.942206859588623,
				2.4435617923736572
			]
		},
		{
			"mesh":2,
			"name":"sign1",
			"rotation":[
				0,
				0.61566162109375,
				0,
				0.7880106568336487
			],
			"translation":[
				2.469602584838867,
				1.942206859588623,
				2.4435617923736572
			]
		},
		{
			"mesh":3,
			"name":"sign2",
			"rotation":[
				0,
				0.61566162109375,
				0,
				0.7880106568336487
			],
			"translation":[
				2.469602584838867,
				1.942206859588623,
				2.4435617923736572
			]
		},
		{
			"mesh":4,
			"name":"post4",
			"rotation":[
				0,
				0.61566162109375,
				0,
				0.7880106568336487
			],
			"translation":[
				2.469602584838867,
				1.942206859588623,
				2.4435617923736572
			]
		},
		{
			"mesh":5,
			"name":"sign3",
			"rotation":[
				0,
				0.61566162109375,
				0,
				0.7880106568336487
			],
			"translation":[
				2.469602584838867,
				1.942206859588623,
				2.4435617923736572
			]
		},
		{
			"mesh":6,
			"name":"post3",
			"rotation":[
				0,
				0.61566162109375,
				0,
				0.7880106568336487
			],
			"translation":[
				2.469602584838867,
				1.942206859588623,
				2.4435617923736572
			]
		},
		{
			"mesh":7,
			"name":"sign4",
			"rotation":[
				0,
				0.61566162109375,
				0,
				0.7880106568336487
			],
			"translation":[
				2.469602584838867,
				1.942206859588623,
				2.4435617923736572
			]
		}
	],
	"materials":[
		{
			"doubleSided":true,
			"name":"Holz4.003",
			"pbrMetallicRoughness":{
				"baseColorFactor":[
					0.3050609230995178,
					0.04780338332056999,
					0.008720122277736664,
					1
				],
				"metallicFactor":0,
				"roughnessFactor":0.7727272510528564
			}
		},
		{
			"doubleSided":true,
			"name":"Holz4",
			"pbrMetallicRoughness":{
				"baseColorFactor":[
					0.3050609230995178,
					0.04780338332056999,
					0.008720122277736664,
					1
				],
				"metallicFactor":0,
				"roughnessFactor":0.7727272510528564
			}
		},
		{
			"doubleSided":true,
			"name":"Wegweiser2.003",
			"pbrMetallicRoughness":{
				"baseColorTexture":{
					"index":0
				},
				"metallicFactor":0,
				"roughnessFactor":0.5
			}
		},
		{
			"doubleSided":true,
			"name":"Holz4.001",
			"pbrMetallicRoughness":{
				"baseColorFactor":[
					0.3050609230995178,
					0.04780338332056999,
					0.008720122277736664,
					1
				],
				"metallicFactor":0,
				"roughnessFactor":0.7727272510528564
			}
		},
		{
			"doubleSided":true,
			"name":"Holz4.002",
			"pbrMetallicRoughness":{
				"baseColorFactor":[
					0.3050609230995178,
					0.04780338332056999,
					0.008720122277736664,
					1
				],
				"metallicFactor":0,
				"roughnessFactor":0.7727272510528564
			}
		}
	],
	"meshes":[
		{
			"name":"Cylinder.001",
			"primitives":[
				{
					"attributes":{
						"POSITION":0,
						"NORMAL":1,
						"TEXCOORD_0":2
					},
					"indices":3,
					"material":0
				}
			]
		},
		{
			"name":"Cylinder.002",
			"primitives":[
				{
					"attributes":{
						"POSITION":4,
						"NORMAL":5,
						"TEXCOORD_0":6
					},
					"indices":7,
					"material":1
				}
			]
		},
		{
			"name":"Cylinder.003",
			"primitives":[
				{
					"attributes":{
						"POSITION":8,
						"NORMAL":9,
						"TEXCOORD_0":10
					},
					"indices":11,
					"material":2
				}
			]
		},
		{
			"name":"Cylinder.004",
			"primitives":[
				{
					"attributes":{
						"POSITION":12,
						"NORMAL":13,
						"TEXCOORD_0":14
					},
					"indices":15,
					"material":2
				}
			]
		},
		{
			"name":"Cylinder.005",
			"primitives":[
				{
					"attributes":{
						"POSITION":16,
						"NORMAL":17,
						"TEXCOORD_0":18
					},
					"indices":19,
					"material":3
				}
			]
		},
		{
			"name":"Cylinder.006",
			"primitives":[
				{
					"attributes":{
						"POSITION":20,
						"NORMAL":21,
						"TEXCOORD_0":22
					},
					"indices":15,
					"material":2
				}
			]
		},
		{
			"name":"Cylinder.007",
			"primitives":[
				{
					"attributes":{
						"POSITION":23,
						"NORMAL":24,
						"TEXCOORD_0":25
					},
					"indices":26,
					"material":4
				}
			]
		},
		{
			"name":"Cylinder.008",
			"primitives":[
				{
					"attributes":{
						"POSITION":27,
						"NORMAL":28,
						"TEXCOORD_0":29
					},
					"indices":30,
					"material":2
				}
			]
		}
	],
	"textures":[
		{
			"sampler":0,
			"source":0
		}
	],
	"images":[
		{
			"mimeType":"image/png",
			"name":"back",
			"uri":"BackTexts/back.png"
		}
	],
	"accessors":[
		{
			"bufferView":0,
			"componentType":5126,
			"count":235,
			"max":[
				-0.8962491750717163,
				12.774823188781738,
				3.21648907661438
			],
			"min":[
				-1.1262367963790894,
				11.568402290344238,
				2.978806734085083
			],
			"type":"VEC3"
		},
		{
			"bufferView":1,
			"componentType":5126,
			"count":235,
			"type":"VEC3"
		},
		{
			"bufferView":2,
			"componentType":5126,
			"count":235,
			"type":"VEC2"
		},
		{
			"bufferView":3,
			"componentType":5123,
			"count":312,
			"type":"SCALAR"
		},
		{
			"bufferView":4,
			"componentType":5126,
			"count":227,
			"max":[
				0.12015950679779053,
				6.586387634277344,
				-6.678089141845703
			],
			"min":[
				-0.11329102516174316,
				5.379968166351318,
				-6.893003463745117
			],
			"type":"VEC3"
		},
		{
			"bufferView":5,
			"componentType":5126,
			"count":227,
			"type":"VEC3"
		},
		{
			"bufferView":6,
			"componentType":5126,
			"count":227,
			"type":"VEC2"
		},
		{
			"bufferView":7,
			"componentType":5123,
			"count":312,
			"type":"SCALAR"
		},
		{
			"bufferView":8,
			"componentType":5126,
			"count":122,
			"max":[
				0.4355494976043701,
				6.462916851043701,
				-6.655666351318359
			],
			"min":[
				-0.4658881425857544,
				6.087011814117432,
				-7.037109375
			],
			"type":"VEC3"
		},
		{
			"bufferView":9,
			"componentType":5126,
			"count":122,
			"type":"VEC3"
		},
		{
			"bufferView":10,
			"componentType":5126,
			"count":122,
			"type":"VEC2"
		},
		{
			"bufferView":11,
			"componentType":5123,
			"count":168,
			"type":"SCALAR"
		},
		{
			"bufferView":12,
			"componentType":5126,
			"count":126,
			"max":[
				0.8609863519668579,
				-0.39225053787231445,
				13.800407409667969
			],
			"min":[
				0.3331167697906494,
				-0.768155574798584,
				12.96728515625
			],
			"type":"VEC3"
		},
		{
			"bufferView":13,
			"componentType":5126,
			"count":126,
			"type":"VEC3"
		},
		{
			"bufferView":14,
			"componentType":5126,
			"count":126,
			"type":"VEC2"
		},
		{
			"bufferView":15,
			"componentType":5123,
			"count":168,
			"type":"SCALAR"
		},
		{
			"bufferView":16,
			"componentType":5126,
			"count":226,
			"max":[
				0.6346944570541382,
				-0.2687797546386719,
				13.482877731323242
			],
			"min":[
				0.39864563941955566,
				-1.4751996994018555,
				13.244522094726562
			],
			"type":"VEC3"
		},
		{
			"bufferView":17,
			"componentType":5126,
			"count":226,
			"type":"VEC3"
		},
		{
			"bufferView":18,
			"componentType":5126,
			"count":226,
			"type":"VEC2"
		},
		{
			"bufferView":19,
			"componentType":5123,
			"count":312,
			"type":"SCALAR"
		},
		{
			"bufferView":20,
			"componentType":5126,
			"count":126,
			"max":[
				6.591438293457031,
				3.5205955505371094,
				-3.042022705078125
			],
			"min":[
				6.063568115234375,
				3.14469051361084,
				-3.8751463890075684
			],
			"type":"VEC3"
		},
		{
			"bufferView":21,
			"componentType":5126,
			"count":126,
			"type":"VEC3"
		},
		{
			"bufferView":22,
			"componentType":5126,
			"count":126,
			"type":"VEC2"
		},
		{
			"bufferView":23,
			"componentType":5126,
			"count":225,
			"max":[
				6.365145683288574,
				3.644066333770752,
				-3.359553337097168
			],
			"min":[
				6.129097938537598,
				2.4376463890075684,
				-3.5979084968566895
			],
			"type":"VEC3"
		},
		{
			"bufferView":24,
			"componentType":5126,
			"count":225,
			"type":"VEC3"
		},
		{
			"bufferView":25,
			"componentType":5126,
			"count":225,
			"type":"VEC2"
		},
		{
			"bufferView":26,
			"componentType":5123,
			"count":312,
			"type":"SCALAR"
		},
		{
			"bufferView":27,
			"componentType":5126,
			"count":107,
			"max":[
				-0.7540122270584106,
				12.651352882385254,
				3.4309895038604736
			],
			"min":[
				-1.4135338068008423,
				12.2754487991333,
				2.692387819290161
			],
			"type":"VEC3"
		},
		{
			"bufferView":28,
			"componentType":5126,
			"count":107,
			"type":"VEC3"
		},
		{
			"bufferView":29,
			"componentType":5126,
			"count":107,
			"type":"VEC2"
		},
		{
			"bufferView":30,
			"componentType":5123,
			"count":168,
			"type":"SCALAR"
		}
	],
	"bufferViews":[
		{
			"buffer":0,
			"byteLength":2820,
			"byteOffset":0,
			"target":34962
		},
		{
			"buffer":0,
			"byteLength":2820,
			"byteOffset":2820,
			"target":34962
		},
		{
			"buffer":0,
			"byteLength":1880,
			"byteOffset":5640,
			"target":34962
		},
		{
			"buffer":0,
			"byteLength":624,
			"byteOffset":7520,
			"target":34963
		},
		{
			"buffer":0,
			"byteLength":2724,
			"byteOffset":8144,
			"target":34962
		},
		{
			"buffer":0,
			"byteLength":2724,
			"byteOffset":10868,
			"target":34962
		},
		{
			"buffer":0,
			"byteLength":1816,
			"byteOffset":13592,
			"target":34962
		},
		{
			"buffer":0,
			"byteLength":624,
			"byteOffset":15408,
			"target":34963
		},
		{
			"buffer":0,
			"byteLength":1464,
			"byteOffset":16032,
			"target":34962
		},
		{
			"buffer":0,
			"byteLength":1464,
			"byteOffset":17496,
			"target":34962
		},
		{
			"buffer":0,
			"byteLength":976,
			"byteOffset":18960,
			"target":34962
		},
		{
			"buffer":0,
			"byteLength":336,
			"byteOffset":19936,
			"target":34963
		},
		{
			"buffer":0,
			"byteLength":1512,
			"byteOffset":20272,
			"target":34962
		},
		{
			"buffer":0,
			"byteLength":1512,
			"byteOffset":21784,
			"target":34962
		},
		{
			"buffer":0,
			"byteLength":1008,
			"byteOffset":23296,
			"target":34962
		},
		{
			"buffer":0,
			"byteLength":336,
			"byteOffset":24304,
			"target":34963
		},
		{
			"buffer":0,
			"byteLength":2712,
			"byteOffset":24640,
			"target":34962
		},
		{
			"buffer":0,
			"byteLength":2712,
			"byteOffset":27352,
			"target":34962
		},
		{
			"buffer":0,
			"byteLength":1808,
			"byteOffset":30064,
			"target":34962
		},
		{
			"buffer":0,
			"byteLength":624,
			"byteOffset":31872,
			"target":34963
		},
		{
			"buffer":0,
			"byteLength":1512,
			"byteOffset":32496,
			"target":34962
		},
		{
			"buffer":0,
			"byteLength":1512,
			"byteOffset":34008,
			"target":34962
		},
		{
			"buffer":0,
			"byteLength":1008,
			"byteOffset":35520,
			"target":34962
		},
		{
			"buffer":0,
			"byteLength":2700,
			"byteOffset":36528,
			"target":34962
		},
		{
			"buffer":0,
			"byteLength":2700,
			"byteOffset":39228,
			"target":34962
		},
		{
			"buffer":0,
			"byteLength":1800,
			"byteOffset":41928,
			"target":34962
		},
		{
			"buffer":0,
			"byteLength":624,
			"byteOffset":43728,
			"target":34963
		},
		{
			"buffer":0,
			"byteLength":1284,
			"byteOffset":44352,
			"target":34962
		},
		{
			"buffer":0,
			"byteLength":1284,
			"byteOffset":45636,
			"target":34962
		},
		{
			"buffer":0,
			"byteLength":856,
			"byteOffset":46920,
			"target":34962
		},
		{
			"buffer":0,
			"byteLength":336,
			"byteOffset":47776,
			"target":34963
		}
	],
	"samplers":[
		{
			"magFilter":9729,
			"minFilter":9987
		}
	],
	"buffers":[
		{
			"byteLength":48112,
			"uri":"BacKGroup.bin"
		}
	]
}
